<svg width="14" height="14" viewBox="0 0 14 14" fill="none" xmlns="http://www.w3.org/2000/svg">
<path d="M8.81496 0H8.55571H3.11126C2.54087 0 2.07422 0.466653 2.07422 1.03704V12.963C2.07422 13.5333 2.54087 14 3.11126 14H10.889C11.4594 14 11.9261 13.5333 11.9261 12.963V3.8889V3.62966L8.81496 0ZM8.81496 0.777791L11.252 3.62966H9.33348C9.07423 3.62966 8.81496 3.37041 8.81496 3.11114V0.777791ZM11.4076 12.963C11.4076 13.2222 11.2001 13.4815 10.889 13.4815H3.11126C2.85201 13.4815 2.59274 13.2741 2.59274 12.963V1.03704C2.59274 0.777791 2.80014 0.518519 3.11126 0.518519H8.29644V3.11111C8.29644 3.6815 8.76312 4.14815 9.33348 4.14815H11.4076V12.963Z" fill="black"/>
</svg>
